<svg width="24" height="24" viewBox="0 0 24 24" fill="none" xmlns="http://www.w3.org/2000/svg">
<g id="uil:bill">
<path id="Vector" d="M10.85 8.50007V8.65007H11H12C12.2254 8.65007 12.4416 8.73962 12.601 8.89903C12.7605 9.05843 12.85 9.27463 12.85 9.50007C12.85 9.7255 12.7605 9.9417 12.601 10.1011C12.4416 10.2605 12.2254 10.3501 12 10.3501H9.50001C9.32762 10.3501 9.16229 10.4186 9.04039 10.5404C8.91849 10.6623 8.85001 10.8277 8.85001 11.0001C8.85001 11.1725 8.91849 11.3378 9.04039 11.4597C9.16229 11.5816 9.32762 11.6501 9.50001 11.6501H10.5H10.5002C11.0829 11.6495 11.6451 11.8655 12.0776 12.2561C12.5101 12.6467 12.7821 13.1841 12.8406 13.7639C12.8992 14.3437 12.7402 14.9246 12.3946 15.3938C12.0489 15.8631 11.5413 16.1871 10.9702 16.3031L10.85 16.3275V16.4501V17.0001C10.85 17.2255 10.7605 17.4417 10.601 17.6011C10.4416 17.7605 10.2254 17.8501 10 17.8501C9.77457 17.8501 9.55837 17.7605 9.39897 17.6011C9.23956 17.4417 9.15001 17.2255 9.15001 17.0001V16.5001V16.3501H9.00001H8.00001C7.77457 16.3501 7.55837 16.2605 7.39897 16.1011C7.23956 15.9417 7.15001 15.7255 7.15001 15.5001C7.15001 15.2746 7.23956 15.0584 7.39897 14.899C7.55837 14.7396 7.77457 14.6501 8.00001 14.6501H10.5C10.6724 14.6501 10.8377 14.5816 10.9596 14.4597C11.0815 14.3378 11.15 14.1725 11.15 14.0001C11.15 13.8277 11.0815 13.6623 10.9596 13.5404C10.8377 13.4186 10.6724 13.3501 10.5 13.3501H9.50001H9.49986C8.91708 13.3507 8.35487 13.1347 7.92238 12.7441C7.48989 12.3534 7.21796 11.8161 7.15939 11.2362C7.10082 10.6564 7.25979 10.0755 7.60543 9.6063C7.95108 9.13708 8.45873 8.81304 9.02986 8.69707L9.15001 8.67267V8.55007V8.00007C9.15001 7.77463 9.23956 7.55843 9.39897 7.39903C9.55837 7.23962 9.77457 7.15007 10 7.15007C10.2254 7.15007 10.4416 7.23962 10.601 7.39903C10.7605 7.55843 10.85 7.77463 10.85 8.00007V8.50007ZM17.85 12.0001V12.1501H18H21C21.2254 12.1501 21.4416 12.2396 21.601 12.399C21.7605 12.5584 21.85 12.7746 21.85 13.0001V19.0001C21.85 19.7559 21.5497 20.4808 21.0153 21.0153C20.4808 21.5498 19.7559 21.8501 19 21.8501H5.00001C4.24414 21.8501 3.51923 21.5498 2.98475 21.0153C2.45028 20.4808 2.15001 19.7559 2.15001 19.0001L2.15001 3.00007L2.15001 2.99947C2.14941 2.84969 2.18841 2.70242 2.26304 2.57256C2.33767 2.4427 2.44529 2.33486 2.57501 2.25997L2.57501 2.25997C2.70422 2.18537 2.8508 2.14609 3.00001 2.14609C3.14921 2.14609 3.29579 2.18537 3.42501 2.25997L3.4254 2.2602L6.4254 3.9802L6.50001 4.02297L6.57462 3.9802L9.57462 2.2602L9.57501 2.25997C9.70422 2.18537 9.8508 2.14609 10 2.14609C10.1492 2.14609 10.2958 2.18537 10.425 2.25997L10.4254 2.2602L13.4254 3.9802L13.5 4.02297L13.5746 3.9802L16.5746 2.2602L16.575 2.25997C16.7042 2.18537 16.8508 2.14609 17 2.14609C17.1492 2.14609 17.2958 2.18537 17.425 2.25997C17.5547 2.33486 17.6623 2.4427 17.737 2.57256C17.8116 2.70242 17.8506 2.84969 17.85 2.99947V3.00007V12.0001ZM4.07429 4.59975L3.85001 4.47191V4.73007V19.0001C3.85001 19.3051 3.97117 19.5976 4.18684 19.8132C4.4025 20.0289 4.69501 20.1501 5.00001 20.1501H16.18H16.394L16.321 19.9489C16.2105 19.6444 16.1526 19.3234 16.15 18.9995V4.73007V4.47191L15.9257 4.59975L13.9282 5.73833C13.7959 5.80695 13.6491 5.84278 13.5 5.84278C13.351 5.84278 13.2042 5.80698 13.072 5.73842L10.0746 4.01994L10 3.97716L9.9254 4.01994L6.92805 5.73842C6.7958 5.80698 6.649 5.84278 6.50001 5.84278C6.35095 5.84278 6.20409 5.80695 6.0718 5.73833L4.07429 4.59975ZM18 13.8501H17.85V14.0001V19.0001C17.85 19.3051 17.9712 19.5976 18.1868 19.8132C18.4025 20.0289 18.695 20.1501 19 20.1501C19.305 20.1501 19.5975 20.0289 19.8132 19.8132C20.0288 19.5976 20.15 19.3051 20.15 19.0001V14.0001V13.8501H20H18Z" fill="black" stroke="white" stroke-width="0.3"/>
</g>
</svg>
