<svg width="24" height="24" viewBox="0 0 24 24" fill="none" xmlns="http://www.w3.org/2000/svg">
<g id="hugeicons:books-02">
<g id="Group">
<path id="Vector" d="M6 15H3M3 21H15C15.932 21 16.398 21 16.765 20.848C17.0078 20.7475 17.2284 20.6001 17.4143 20.4143C17.6001 20.2284 17.7475 20.0078 17.848 19.765C18 19.398 18 18.932 18 18C18 17.068 18 16.602 17.848 16.235C17.7475 15.9922 17.6001 15.7716 17.4143 15.5857C17.2284 15.3999 17.0078 15.2525 16.765 15.152C16.398 15 15.932 15 15 15H13H18C18.932 15 19.398 15 19.765 14.848C20.0078 14.7475 20.2284 14.6001 20.4143 14.4143C20.6001 14.2284 20.7475 14.0078 20.848 13.765C21 13.398 21 12.932 21 12C21 11.068 21 10.602 20.848 10.235C20.7475 9.99218 20.6001 9.77155 20.4143 9.58572C20.2284 9.3999 20.0078 9.25251 19.765 9.152C19.398 9 18.932 9 18 9H3H14C14.932 9 15.398 9 15.765 8.848C16.0078 8.74749 16.2284 8.6001 16.4143 8.41428C16.6001 8.22845 16.7475 8.00782 16.848 7.765C17 7.398 17 6.932 17 6C17 5.068 17 4.602 16.848 4.235C16.7475 3.99218 16.6001 3.77155 16.4143 3.58572C16.2284 3.3999 16.0078 3.25251 15.765 3.152C15.398 3 14.932 3 14 3H3" stroke="black" stroke-width="1.5" stroke-linecap="round" stroke-linejoin="round"/>
<path id="Vector_2" d="M13 9V15.19C13 16.305 13 16.862 12.674 16.98C12.347 17.1 11.978 16.676 11.241 15.83L10.759 15.278C10.406 14.873 10.23 14.671 10 14.671C9.77 14.671 9.594 14.873 9.24 15.278L8.76 15.83C8.022 16.676 7.653 17.1 7.327 16.98C7 16.862 7 16.305 7 15.19V9" stroke="black" stroke-width="1.5" stroke-linecap="round" stroke-linejoin="round"/>
</g>
</g>
</svg>
