<svg width="24" height="24" viewBox="0 0 24 24" fill="none" xmlns="http://www.w3.org/2000/svg">
<g id="hugeicons:bookshelf-01">
<path id="Vector" d="M5.5 20V22M19.5 20V22M3 11H21M13.5 11L11.5 6M7 11V6M8 19.5V15M12 20V15M17 11V6M16 20L17 15M3 14V8C3 5.172 3 3.757 3.93 2.879C4.86 2.001 6.358 2 9.353 2H14.647C17.642 2 19.139 2 20.07 2.879C21 3.757 21 5.172 21 8V14C21 16.828 21 18.243 20.07 19.121C19.14 19.999 17.642 20 14.647 20H9.353C6.358 20 4.861 20 3.93 19.121C3 18.243 3 16.828 3 14Z" stroke="black" stroke-width="1.5" stroke-linecap="round" stroke-linejoin="round"/>
</g>
</svg>
