<svg width="12" height="12" viewBox="0 0 12 12" fill="none" xmlns="http://www.w3.org/2000/svg">
<path id="Icon" d="M1.75736 0.34225C1.36684 -0.0482743 0.73367 -0.0482746 0.343146 0.34225C-0.0473784 0.732774 -0.0473785 1.36594 0.343146 1.75646L1.75736 0.34225ZM10.2426 11.656C10.6332 12.0465 11.2663 12.0465 11.6569 11.656C12.0474 11.2654 12.0474 10.6323 11.6569 10.2417L10.2426 11.656ZM11.6569 1.75646C12.0474 1.36594 12.0474 0.732774 11.6569 0.34225C11.2663 -0.0482746 10.6332 -0.0482743 10.2426 0.34225L11.6569 1.75646ZM0.343146 10.2417C-0.0473781 10.6323 -0.0473788 11.2654 0.343146 11.656C0.73367 12.0465 1.36684 12.0465 1.75736 11.656L0.343146 10.2417ZM0.343146 1.75646L5.29289 6.70621L6.70711 5.292L1.75736 0.34225L0.343146 1.75646ZM5.29289 6.70621L10.2426 11.656L11.6569 10.2417L6.70711 5.292L5.29289 6.70621ZM10.2426 0.34225L5.29289 5.292L6.70711 6.70621L11.6569 1.75646L10.2426 0.34225ZM5.29289 5.292L0.343146 10.2417L1.75736 11.656L6.70711 6.70621L5.29289 5.292Z" fill="white"/>
</svg>
