<svg width="24" height="24" viewBox="0 0 24 24" fill="none" xmlns="http://www.w3.org/2000/svg">
<g id="fluent:clock-bill-16-regular">
<path id="Vector" d="M17.8755 8.99936C17.4934 6.77925 16.2928 4.78307 14.5109 3.40487C12.7289 2.02667 10.495 1.36661 8.25013 1.55499C6.00527 1.74336 3.91261 2.76648 2.38523 4.42238C0.857862 6.07828 0.00678068 8.24662 1.05867e-07 10.4994C-0.00020065 11.8083 0.285121 13.1016 0.83607 14.2889C1.38702 15.4763 2.19033 16.5292 3.19 17.3742C4.18966 18.2192 5.36162 18.8359 6.62414 19.1815C7.88666 19.527 9.20936 19.593 10.5 19.3749V17.8494C10.014 17.9494 9.514 17.9994 9 17.9994C7.58096 17.9991 6.19111 17.5962 4.99188 16.8376C3.79266 16.0789 2.83327 14.9956 2.22514 13.7135C1.61701 12.4313 1.3851 11.003 1.55634 9.59431C1.72758 8.18563 2.29494 6.85444 3.19254 5.75535C4.09013 4.65625 5.28112 3.83435 6.62718 3.38511C7.97324 2.93587 9.41913 2.87772 10.7969 3.21742C12.1747 3.55712 13.4278 4.28072 14.4108 5.30419C15.3938 6.32765 16.0662 7.60898 16.35 8.99936H17.8755ZM11.58 10.5744C11.4771 10.5245 11.3643 10.4989 11.25 10.4994H9.003V6.74936L8.9895 6.61436C8.9544 6.43165 8.85264 6.26852 8.70399 6.15664C8.55535 6.04476 8.37042 5.99212 8.18514 6.00894C7.99985 6.02577 7.82744 6.11086 7.70138 6.24769C7.57532 6.38452 7.50462 6.56332 7.503 6.74936V11.2494L7.515 11.3844C7.5466 11.557 7.63776 11.7131 7.77261 11.8255C7.90746 11.9379 8.07746 11.9994 8.253 11.9994H10.755C10.941 11.4729 11.223 10.9914 11.58 10.5744ZM21 10.4994H15C14.2044 10.4994 13.4413 10.8154 12.8787 11.378C12.3161 11.9406 12 12.7037 12 13.4994V20.9994C12 21.795 12.3161 22.5581 12.8787 23.1207C13.4413 23.6833 14.2044 23.9994 15 23.9994H21C21.7956 23.9994 22.5587 23.6833 23.1213 23.1207C23.6839 22.5581 24 21.795 24 20.9994V13.4994C24 12.7037 23.6839 11.9406 23.1213 11.378C22.5587 10.8154 21.7956 10.4994 21 10.4994ZM20.25 20.9994H15.75C15.5511 20.9994 15.3603 20.9203 15.2197 20.7797C15.079 20.639 15 20.4483 15 20.2494C15 20.0504 15.079 19.8597 15.2197 19.719C15.3603 19.5784 15.5511 19.4994 15.75 19.4994H20.25C20.4489 19.4994 20.6397 19.5784 20.7803 19.719C20.921 19.8597 21 20.0504 21 20.2494C21 20.4483 20.921 20.639 20.7803 20.7797C20.6397 20.9203 20.4489 20.9994 20.25 20.9994ZM20.25 17.9994H15.75C15.5511 17.9994 15.3603 17.9203 15.2197 17.7797C15.079 17.639 15 17.4483 15 17.2494C15 17.0504 15.079 16.8597 15.2197 16.719C15.3603 16.5784 15.5511 16.4994 15.75 16.4994H20.25C20.4489 16.4994 20.6397 16.5784 20.7803 16.719C20.921 16.8597 21 17.0504 21 17.2494C21 17.4483 20.921 17.639 20.7803 17.7797C20.6397 17.9203 20.4489 17.9994 20.25 17.9994ZM20.25 14.9994H15.75C15.5511 14.9994 15.3603 14.9203 15.2197 14.7797C15.079 14.639 15 14.4483 15 14.2494C15 14.0504 15.079 13.8597 15.2197 13.719C15.3603 13.5784 15.5511 13.4994 15.75 13.4994H20.25C20.4489 13.4994 20.6397 13.5784 20.7803 13.719C20.921 13.8597 21 14.0504 21 14.2494C21 14.4483 20.921 14.639 20.7803 14.7797C20.6397 14.9203 20.4489 14.9994 20.25 14.9994Z" fill="black"/>
</g>
</svg>
